<svg width="24" height="24" viewBox="0 0 24 24" fill="none" xmlns="http://www.w3.org/2000/svg">
  <path fill-rule="evenodd" clip-rule="evenodd"
    d="M20.3186 7.74998H15.776C15.999 7.26616 16.2333 6.6567 16.3213 6.06668C16.3848 5.64061 16.3909 5.11874 16.3397 4.62199C16.2897 4.1373 16.1773 3.59536 15.9528 3.16982C15.4775 2.26864 14.8233 1.63578 14.0361 1.48224C13.1988 1.31893 12.4779 1.74495 12.0464 2.39778C11.6856 2.94375 11.5449 3.39925 11.4167 3.81444L11.4167 3.81444L11.4125 3.82786C11.2892 4.22696 11.1679 4.61901 10.8559 5.17154C10.3427 6.08056 9.92397 6.55203 9.36125 7.0454C9.071 7.29988 8.77253 7.47246 8.5 7.5831V21.225C9.28742 21.2418 10.1289 21.2524 11 21.2524C13.3441 21.2524 15.3224 21.1759 16.627 21.1071C17.9072 21.0396 19.1311 20.3943 19.7997 19.2217C20.4316 18.1135 21.2409 16.4358 21.7288 14.4296C22.1856 12.5508 22.3761 11.0232 22.4535 9.98474C22.5487 8.70656 21.5102 7.74998 20.3186 7.74998ZM7 21.1842V7.74998H5.30231C3.75929 7.74998 2.38771 8.85084 2.21213 10.4483C2.10046 11.4642 2 12.7852 2 14.2524C2 15.839 2.11749 17.3111 2.23926 18.4118C2.40726 19.9306 3.65916 21.0399 5.15251 21.1103C5.68498 21.1355 6.30853 21.1615 7 21.1842Z"
    fill="#61666D" />
</svg>