<svg width="24" height="24" viewBox="0 0 24 24" fill="none" xmlns="http://www.w3.org/2000/svg">
  <path
    fill-rule="evenodd"
    clip-rule="evenodd"
    d="M10.4308 2.73528C11.0728 1.4346 12.9275 1.43459 13.5694 2.73528L15.4401 6.52581C15.6222 6.89474 15.9742 7.15045 16.3813 7.20961L20.5644 7.81745C21.9998 8.02603 22.573 9.78998 21.5343 10.8024L18.5074 13.7529C18.2128 14.0401 18.0783 14.4539 18.1479 14.8594L18.8624 19.0256C19.1076 20.4551 17.6071 21.5453 16.3233 20.8704L12.5818 18.9034C12.2176 18.7119 11.7826 18.7119 11.4184 18.9034L7.67696 20.8704C6.39311 21.5453 4.8926 20.4551 5.1378 19.0256L5.85236 14.8594C5.9219 14.4539 5.78747 14.0401 5.49286 13.7529L2.46594 10.8024C1.42728 9.78998 2.00042 8.02603 3.43581 7.81745L7.61892 7.20961C8.02605 7.15045 8.37801 6.89474 8.56009 6.52581L10.4308 2.73528Z"
    fill="#61666D"
  />
</svg>
