<svg width="24" height="24" viewBox="0 0 24 24" fill="none" xmlns="http://www.w3.org/2000/svg">
  <path fill-rule="evenodd" clip-rule="evenodd"
    d="M10.2501 3.82755C10.2501 2.56388 11.717 1.86648 12.6971 2.66421L21.2708 9.64291C22.1311 10.3432 22.1311 11.6571 21.2707 12.3574L12.697 19.3359C11.717 20.1336 10.2501 19.4362 10.2501 18.1725V14.8741C9.41924 14.8822 8.48658 15.0436 7.53951 15.5019C6.3273 16.0885 5.03711 17.1875 3.894 19.1906C3.60421 19.6983 3.05095 19.8274 2.62968 19.7183C2.20029 19.6072 1.76347 19.2051 1.80276 18.5888C2.08602 14.1452 3.48809 11.3207 5.3144 9.56316C6.89392 8.0431 8.72554 7.38399 10.2501 7.11663V3.82755Z"
    fill="#61666D" />
</svg>